<svg aria-hidden="true" style="position: absolute; width: 0; height: 0; overflow: hidden;" version="1.1" xmlns="http://www.w3.org/2000/svg" xmlns:xlink="http://www.w3.org/1999/xlink">
<defs>
<symbol id="icon-disc" viewBox="0 0 24 24">
<path d="M23 12c0-3.037-1.232-5.789-3.222-7.778s-4.741-3.222-7.778-3.222-5.789 1.232-7.778 3.222-3.222 4.741-3.222 7.778 1.232 5.789 3.222 7.778 4.741 3.222 7.778 3.222 5.789-1.232 7.778-3.222 3.222-4.741 3.222-7.778zM21 12c0 2.486-1.006 4.734-2.636 6.364s-3.878 2.636-6.364 2.636-4.734-1.006-6.364-2.636-2.636-3.878-2.636-6.364 1.006-4.734 2.636-6.364 3.878-2.636 6.364-2.636 4.734 1.006 6.364 2.636 2.636 3.878 2.636 6.364zM16 12c0-1.104-0.449-2.106-1.172-2.828s-1.724-1.172-2.828-1.172-2.106 0.449-2.828 1.172-1.172 1.724-1.172 2.828 0.449 2.106 1.172 2.828 1.724 1.172 2.828 1.172 2.106-0.449 2.828-1.172 1.172-1.724 1.172-2.828zM14 12c0 0.553-0.223 1.051-0.586 1.414s-0.861 0.586-1.414 0.586-1.051-0.223-1.414-0.586-0.586-0.861-0.586-1.414 0.223-1.051 0.586-1.414 0.861-0.586 1.414-0.586 1.051 0.223 1.414 0.586 0.586 0.861 0.586 1.414z"></path>
</symbol>
<symbol id="icon-music-playlist" viewBox="0 0 20 20">
<path d="M16 17c0 1.657-1.343 3-3 3v0h-2c-1.657 0-3-1.343-3-3s1.343-3 3-3v0h2c0.001 0 0.003 0 0.004 0 0.357 0 0.699 0.062 1.016 0.177l-0.021-0.007v-13.17l6-1v4l-4 0.67v12.33zM0 3h12v2h-12v-2zM0 7h12v2h-12v-2zM0 11h12v2h-12v-2zM0 15h6v2h-6v-2z"></path>
</symbol>
<symbol id="icon-music-album" viewBox="0 0 20 20">
<path d="M0 0h20v20h-20v-20zM10 18c4.418 0 8-3.582 8-8s-3.582-8-8-8v0c-4.418 0-8 3.582-8 8s3.582 8 8 8v0zM10 13c-1.657 0-3-1.343-3-3s1.343-3 3-3v0c1.657 0 3 1.343 3 3s-1.343 3-3 3v0z"></path>
</symbol>
<symbol id="icon-controller-jump-to-start" viewBox="0 0 20 20">
<path d="M14.959 4.571l-7.203 4.949c0 0-0.279 0.201-0.279 0.481s0.279 0.479 0.279 0.479l7.203 4.951c0.572 0.38 1.041 0.099 1.041-0.626v-9.609c0-0.727-0.469-1.008-1.041-0.625zM6 4h-1c-0.553 0-1 0.048-1 0.6v10.8c0 0.552 0.447 0.6 1 0.6h1c0.553 0 1-0.048 1-0.6v-10.8c0-0.552-0.447-0.6-1-0.6z"></path>
</symbol>
<symbol id="icon-controller-next" viewBox="0 0 20 20">
<path d="M12.244 9.52l-7.203-4.949c-0.572-0.383-1.041-0.102-1.041 0.625v9.609c0 0.725 0.469 1.006 1.041 0.625l7.203-4.951c0 0 0.279-0.199 0.279-0.478s-0.279-0.481-0.279-0.481zM14 4h1c0.553 0 1 0.048 1 0.6v10.8c0 0.552-0.447 0.6-1 0.6h-1c-0.553 0-1-0.048-1-0.6v-10.8c0-0.552 0.447-0.6 1-0.6z"></path>
</symbol>
<symbol id="icon-dots-three-horizontal" viewBox="0 0 20 20">
<path d="M10.001 7.8c-1.215 0-2.201 0.985-2.201 2.2s0.986 2.2 2.201 2.2c1.215 0 2.199-0.985 2.199-2.2s-0.984-2.2-2.199-2.2zM3.001 7.8c-1.215 0-2.201 0.985-2.201 2.2s0.986 2.2 2.201 2.2c1.215 0 2.199-0.986 2.199-2.2s-0.984-2.2-2.199-2.2zM17.001 7.8c-1.215 0-2.201 0.985-2.201 2.2s0.986 2.2 2.201 2.2c1.215 0 2.199-0.985 2.199-2.2s-0.984-2.2-2.199-2.2z"></path>
</symbol>
<symbol id="icon-folder-music" viewBox="0 0 20 20">
<path d="M18.405 2.799c-0.112-0.44-0.656-0.799-1.21-0.799h-14.39c-0.555 0-1.099 0.359-1.21 0.799l-0.201 1.201h17.211l-0.2-1.201zM19.412 5h-18.825c-0.342 0-0.609 0.294-0.577 0.635l0.923 11.669c0.038 0.394 0.37 0.696 0.766 0.696h16.601c0.397 0 0.728-0.302 0.766-0.696l0.923-11.669c0.033-0.341-0.235-0.635-0.577-0.635zM11.942 12.521c-0.128 0.265-0.258 0.279-0.202 0 0.146-0.721 0.047-2.269-1.043-2.441v3.294c0 0.674-0.311 1.262-1.136 1.528-0.802 0.256-1.699-0.011-1.908-0.586s0.261-1.276 1.052-1.564c0.442-0.161 0.954-0.203 1.299-0.070v-4.682h0.694c-0.001 1.633 2.818 1.275 1.244 4.521z"></path>
</symbol>
<symbol id="icon-heart-outlined" viewBox="0 0 20 20">
<path d="M17.19 4.156c-1.672-1.535-4.383-1.535-6.055 0l-1.135 1.041-1.136-1.041c-1.672-1.535-4.382-1.535-6.054 0-1.881 1.726-1.881 4.519 0 6.245l7.19 6.599 7.19-6.599c1.88-1.726 1.88-4.52 0-6.245zM16.124 9.375l-6.124 5.715-6.125-5.715c-0.617-0.567-0.856-1.307-0.856-2.094s0.138-1.433 0.756-1.999c0.545-0.501 1.278-0.777 2.063-0.777s1.517 0.476 2.062 0.978l2.1 1.825 2.099-1.826c0.546-0.502 1.278-0.978 2.063-0.978s1.518 0.276 2.063 0.777c0.618 0.566 0.755 1.212 0.755 1.999s-0.238 1.528-0.856 2.095z"></path>
</symbol>
<symbol id="icon-magnifying-glass" viewBox="0 0 20 20">
<path d="M17.545 15.467l-3.779-3.779c0.57-0.935 0.898-2.035 0.898-3.21 0-3.417-2.961-6.377-6.378-6.377s-6.186 2.769-6.186 6.186c0 3.416 2.961 6.377 6.377 6.377 1.137 0 2.2-0.309 3.115-0.844l3.799 3.801c0.372 0.371 0.975 0.371 1.346 0l0.943-0.943c0.371-0.371 0.236-0.84-0.135-1.211zM4.004 8.287c0-2.366 1.917-4.283 4.282-4.283s4.474 2.107 4.474 4.474c0 2.365-1.918 4.283-4.283 4.283s-4.473-2.109-4.473-4.474z"></path>
</symbol>
<symbol id="icon-shuffle" viewBox="0 0 20 20">
<path d="M15.093 6.694h0.92v2.862l3.987-4.024-3.988-4.025v2.387h-0.92c-3.694 0-5.776 2.738-7.614 5.152-1.652 2.172-3.080 4.049-5.386 4.049h-2.092v2.799h2.093c3.694 0 5.776-2.736 7.614-5.152 1.652-2.173 3.080-4.048 5.386-4.048zM5.41 8.458c0.158-0.203 0.316-0.412 0.477-0.623 0.39-0.514 0.804-1.055 1.252-1.596-1.322-1.234-2.915-2.144-5.046-2.144h-2.093v2.799h2.093c1.327 0 2.362 0.623 3.317 1.564zM16.012 13.294h-0.92c-1.407 0-2.487-0.701-3.491-1.738-0.1 0.131-0.201 0.264-0.303 0.397-0.441 0.58-0.915 1.201-1.439 1.818 1.356 1.324 3 2.324 5.232 2.324h0.92v2.398l3.989-4.025-3.988-4.025v2.851z"></path>
</symbol>
<symbol id="icon-play2" viewBox="0 0 32 32">
<path d="M16 0c-8.837 0-16 7.163-16 16s7.163 16 16 16 16-7.163 16-16-7.163-16-16-16zM16 29c-7.18 0-13-5.82-13-13s5.82-13 13-13 13 5.82 13 13-5.82 13-13 13zM12 9l12 7-12 7z"></path>
</symbol>
<symbol id="icon-pause" viewBox="0 0 32 32">
<path d="M16 0c-8.837 0-16 7.163-16 16s7.163 16 16 16 16-7.163 16-16-7.163-16-16-16zM16 29c-7.18 0-13-5.82-13-13s5.82-13 13-13 13 5.82 13 13-5.82 13-13 13zM10 10h4v12h-4zM18 10h4v12h-4z"></path>
</symbol>
<symbol id="icon-previous" viewBox="0 0 32 32">
<path d="M16 0c-8.837 0-16 7.163-16 16s7.163 16 16 16 16-7.163 16-16-7.163-16-16-16zM16 29c-7.18 0-13-5.82-13-13s5.82-13 13-13 13 5.82 13 13-5.82 13-13 13z"></path>
<path d="M14 16l8-6v12z"></path>
<path d="M10 10h4v12h-4v-12z"></path>
</symbol>
<symbol id="icon-next" viewBox="0 0 32 32">
<path d="M16 0c8.837 0 16 7.163 16 16s-7.163 16-16 16-16-7.163-16-16 7.163-16 16-16zM16 29c7.18 0 13-5.82 13-13s-5.82-13-13-13-13 5.82-13 13 5.82 13 13 13z"></path>
<path d="M18 16l-8-6v12z"></path>
<path d="M22 10h-4v12h4v-12z"></path>
</symbol>
<symbol id="icon-play3" viewBox="0 0 32 32">
<path d="M6 4l20 12-20 12z"></path>
</symbol>
<symbol id="icon-pause2" viewBox="0 0 32 32">
<path d="M4 4h10v24h-10zM18 4h10v24h-10z"></path>
</symbol>
<symbol id="icon-stop2" viewBox="0 0 32 32">
<path d="M4 4h24v24h-24z"></path>
</symbol>
<symbol id="icon-volume-medium" viewBox="0 0 32 32">
<path d="M22.485 25.985c-0.384 0-0.768-0.146-1.061-0.439-0.586-0.586-0.586-1.535 0-2.121 4.094-4.094 4.094-10.755 0-14.849-0.586-0.586-0.586-1.536 0-2.121s1.536-0.586 2.121 0c2.55 2.55 3.954 5.94 3.954 9.546s-1.404 6.996-3.954 9.546c-0.293 0.293-0.677 0.439-1.061 0.439v0zM17.157 23.157c-0.384 0-0.768-0.146-1.061-0.439-0.586-0.586-0.586-1.535 0-2.121 2.534-2.534 2.534-6.658 0-9.192-0.586-0.586-0.586-1.536 0-2.121s1.535-0.586 2.121 0c3.704 3.704 3.704 9.731 0 13.435-0.293 0.293-0.677 0.439-1.061 0.439z"></path>
<path d="M13 30c-0.26 0-0.516-0.102-0.707-0.293l-7.707-7.707h-3.586c-0.552 0-1-0.448-1-1v-10c0-0.552 0.448-1 1-1h3.586l7.707-7.707c0.286-0.286 0.716-0.372 1.090-0.217s0.617 0.519 0.617 0.924v26c0 0.404-0.244 0.769-0.617 0.924-0.124 0.051-0.254 0.076-0.383 0.076z"></path>
</symbol>
<symbol id="icon-loop" viewBox="0 0 32 32">
<path d="M4 10h20v6l8-8-8-8v6h-24v12h4zM28 22h-20v-6l-8 8 8 8v-6h24v-12h-4z"></path>
</symbol>
<symbol id="icon-shuffle1" viewBox="0 0 32 32">
<path d="M24 22h-3.172l-5-5 5-5h3.172v5l7-7-7-7v5h-4c-0.53 0-1.039 0.211-1.414 0.586l-5.586 5.586-5.586-5.586c-0.375-0.375-0.884-0.586-1.414-0.586h-6v4h5.172l5 5-5 5h-5.172v4h6c0.53 0 1.039-0.211 1.414-0.586l5.586-5.586 5.586 5.586c0.375 0.375 0.884 0.586 1.414 0.586h4v5l7-7-7-7v5z"></path>
</symbol>
<symbol id="icon-arrow-right2" viewBox="0 0 32 32">
<path d="M19.414 27.414l10-10c0.781-0.781 0.781-2.047 0-2.828l-10-10c-0.781-0.781-2.047-0.781-2.828 0s-0.781 2.047 0 2.828l6.586 6.586h-19.172c-1.105 0-2 0.895-2 2s0.895 2 2 2h19.172l-6.586 6.586c-0.39 0.39-0.586 0.902-0.586 1.414s0.195 1.024 0.586 1.414c0.781 0.781 2.047 0.781 2.828 0z"></path>
</symbol>
<symbol id="icon-arrow-left2" viewBox="0 0 32 32">
<path d="M12.586 27.414l-10-10c-0.781-0.781-0.781-2.047 0-2.828l10-10c0.781-0.781 2.047-0.781 2.828 0s0.781 2.047 0 2.828l-6.586 6.586h19.172c1.105 0 2 0.895 2 2s-0.895 2-2 2h-19.172l6.586 6.586c0.39 0.39 0.586 0.902 0.586 1.414s-0.195 1.024-0.586 1.414c-0.781 0.781-2.047 0.781-2.828 0z"></path>
</symbol>
</defs>
</svg>
